<!--?xml version="1.0" encoding="utf-8"?-->
<!-- Svg Vector Icons : http://www.onlinewebfonts.com/icon -->

<svg version="1.1" xmlns="http://www.w3.org/2000/svg" xmlns:xlink="http://www.w3.org/1999/xlink" x="0px" y="0px" viewBox="0 0 256 256" enable-background="new 0 0 256 256" xml:space="preserve">
<metadata> Svg Vector Icons : http://www.onlinewebfonts.com/icon </metadata>
<g><g><path fill="#b3b9b3" data-title="Layer 0" xs="0" d="M151.6,151.6l1.5-23.6c-7.4,7.4-16.2,13.3-25.1,17.7l11.8,35.4c1.5,3,3,5.9,5.9,5.9c2.9,0,4.4-3,4.4-4.4l1.5-25.1l3-1.5c1.5,0,1.5-1.5,1.5-3C154.6,151.6,153.1,151.6,151.6,151.6z"/><path fill="#b4c1b2" data-title="Layer 1" xs="1" d="M139.8,97l-23.6-11.8l0,0c1.5,0,1.5-1.5,1.5-3c0-1.5-1.5-1.5-2.9-1.5l-4.4,1.5L86.7,70.5c-1.5-1.5-4.4,0-5.9,1.5c-1.5,3,0,4.4,1.5,7.4l31,36.9c-13.3,8.9-23.6,17.7-29.5,22.1l0,0l-20.7-5.9c-3-1.5-5.9,0-5.9,3c0,0,8.9,8.9,13.3,14.8c3,5.9,7.4,19.2,7.4,19.2c3,1.5,5.9-1.5,5.9-3l3-13.3c0,0,113.6-50.2,101.8-67.9C181.1,74.9,160.5,83.8,139.8,97z"/><path fill="#6d956f" data-title="Layer 2" xs="2" d="M128,10C63.1,10,10,63.1,10,128s53.1,118,118,118s118-53.1,118-118S192.9,10,128,10z M128,223.9c-53.1,0-95.9-42.8-95.9-95.9c0-53.1,42.8-95.9,95.9-95.9c53.1,0,95.9,42.8,95.9,95.9C223.9,181.1,181.1,223.9,128,223.9z"/></g></g>
</svg>